<svg width="700" height="155" viewBox="0 0 700 155" fill="none" xmlns="http://www.w3.org/2000/svg">
<g clip-path="url(#clip0_1_2)">
<g clip-path="url(#clip1_1_2)">
<mask id="mask0_1_2" style="mask-type:luminance" maskUnits="userSpaceOnUse" x="-2" y="0" width="600" height="161">
<path d="M598 0H-2V160.064H598V0Z" fill="white"/>
</mask>
<g mask="url(#mask0_1_2)">
<path d="M22.1663 134.482C21.6139 133.32 20.8139 132.424 19.7663 131.795C18.7187 131.148 17.4996 130.824 16.1091 130.824C14.7187 130.824 13.4615 131.148 12.3377 131.795C11.233 132.424 10.3567 133.339 9.70913 134.539C9.08056 135.721 8.76627 137.093 8.76627 138.655C8.76627 140.218 9.08056 141.59 9.70913 142.771C10.3567 143.953 11.233 144.868 12.3377 145.515C13.4615 146.144 14.7187 146.458 16.1091 146.458C18.052 146.458 19.652 145.877 20.9091 144.715C22.1663 143.553 22.8996 141.981 23.1091 139.999H15.1663V137.884H25.8806V139.884C25.7282 141.523 25.2139 143.029 24.3377 144.401C23.4615 145.754 22.3091 146.83 20.8806 147.63C19.452 148.412 17.8615 148.802 16.1091 148.802C14.2615 148.802 12.5758 148.374 11.052 147.516C9.52816 146.64 8.31867 145.43 7.42342 143.886C6.54724 142.343 6.10913 140.599 6.10913 138.655C6.10913 136.712 6.54724 134.968 7.42342 133.425C8.31867 131.862 9.52816 130.652 11.052 129.795C12.5758 128.918 14.2615 128.48 16.1091 128.48C18.2234 128.48 20.0901 129.004 21.7091 130.052C23.3472 131.1 24.5377 132.577 25.2806 134.482H22.1663ZM41.0897 144.2H32.404L30.804 148.631H28.0611L35.2611 128.823H38.2611L45.4326 148.631H42.6897L41.0897 144.2ZM40.3468 142.085L36.7468 132.024L33.1468 142.085H40.3468ZM60.8274 128.709V130.824H55.3988V148.631H52.7991V130.824H47.3419V128.709H60.8274ZM66.628 130.824V137.483H73.8851V139.627H66.628V146.487H74.7423V148.631H64.028V128.68H74.7423V130.824H66.628ZM103.705 128.709L97.9337 148.631H95.0194L90.3908 132.596L85.5908 148.631L82.7051 148.659L77.1337 128.709H79.9051L84.248 145.601L89.048 128.709H91.9623L96.5337 145.544L100.905 128.709H103.705ZM118.322 144.2H109.636L108.036 148.631H105.293L112.493 128.823H115.493L122.665 148.631H119.922L118.322 144.2ZM117.579 142.085L113.979 132.024L110.379 142.085H117.579ZM139.746 128.709L133.26 141.113V148.631H130.66V141.113L124.146 128.709H127.031L131.946 138.798L136.86 128.709H139.746ZM162.362 128.709V130.824H156.934V148.631H154.334V130.824H148.877V128.709H162.362ZM174.591 148.831C172.743 148.831 171.058 148.402 169.534 147.545C168.01 146.668 166.801 145.458 165.906 143.915C165.029 142.352 164.591 140.599 164.591 138.655C164.591 136.712 165.029 134.968 165.906 133.425C166.801 131.862 168.01 130.652 169.534 129.795C171.058 128.918 172.743 128.48 174.591 128.48C176.458 128.48 178.153 128.918 179.677 129.795C181.201 130.652 182.401 131.853 183.277 133.396C184.153 134.94 184.591 136.693 184.591 138.655C184.591 140.618 184.153 142.371 183.277 143.915C182.401 145.458 181.201 146.668 179.677 147.545C178.153 148.402 176.458 148.831 174.591 148.831ZM174.591 146.573C175.982 146.573 177.229 146.249 178.334 145.601C179.458 144.953 180.334 144.029 180.963 142.828C181.61 141.628 181.934 140.237 181.934 138.655C181.934 137.055 181.61 135.664 180.963 134.482C180.334 133.282 179.467 132.357 178.363 131.71C177.258 131.062 176.001 130.738 174.591 130.738C173.182 130.738 171.925 131.062 170.82 131.71C169.715 132.357 168.839 133.282 168.191 134.482C167.563 135.664 167.249 137.055 167.249 138.655C167.249 140.237 167.563 141.628 168.191 142.828C168.839 144.029 169.715 144.953 170.82 145.601C171.943 146.249 173.201 146.573 174.591 146.573ZM198.241 130.824V137.483H205.498V139.627H198.241V146.487H206.355V148.631H195.641V128.68H206.355V130.824H198.241ZM218.432 138.684L224.546 148.631H221.603L216.832 140.856L212.289 148.631H209.403L215.489 138.684L209.375 128.709H212.289L217.089 136.512L221.661 128.709H224.575L218.432 138.684ZM239.806 144.2H231.121L229.521 148.631H226.778L233.978 128.823H236.978L244.149 148.631H241.406L239.806 144.2ZM239.063 142.085L235.463 132.024L231.863 142.085H239.063ZM267.487 128.851V148.631H264.887V133.882L258.315 148.631H256.487L249.887 133.853V148.631H247.287V128.851H250.087L257.401 145.201L264.715 128.851H267.487ZM282.114 130.824V137.483H289.371V139.627H282.114V146.487H290.228V148.631H279.514V128.68H290.228V130.824H282.114ZM302.305 138.684L308.419 148.631H305.477L300.705 140.856L296.162 148.631H293.277L299.362 138.684L293.248 128.709H296.162L300.962 136.512L305.534 128.709H308.448L302.305 138.684ZM310.936 138.655C310.936 136.712 311.374 134.968 312.25 133.425C313.127 131.862 314.317 130.642 315.822 129.766C317.346 128.89 319.031 128.451 320.879 128.451C323.05 128.451 324.946 128.976 326.565 130.023C328.184 131.071 329.365 132.558 330.107 134.482H326.993C326.441 133.282 325.641 132.357 324.593 131.71C323.565 131.062 322.327 130.738 320.879 130.738C319.489 130.738 318.241 131.062 317.136 131.71C316.031 132.357 315.165 133.282 314.536 134.482C313.907 135.664 313.593 137.055 313.593 138.655C313.593 140.237 313.907 141.628 314.536 142.828C315.165 144.01 316.031 144.925 317.136 145.572C318.241 146.22 319.489 146.544 320.879 146.544C322.327 146.544 323.565 146.23 324.593 145.601C325.641 144.953 326.441 144.029 326.993 142.828H330.107C329.365 144.734 328.184 146.211 326.565 147.259C324.946 148.288 323.05 148.802 320.879 148.802C319.031 148.802 317.346 148.374 315.822 147.516C314.317 146.64 313.127 145.43 312.25 143.886C311.374 142.343 310.936 140.599 310.936 138.655ZM336.578 130.824V137.483H343.835V139.627H336.578V146.487H344.692V148.631H333.978V128.68H344.692V130.824H336.578ZM351.226 146.516H358.198V148.631H348.626V128.709H351.226V146.516ZM363.559 146.516H370.53V148.631H360.959V128.709H363.559V146.516ZM375.891 130.824V137.483H383.149V139.627H375.891V146.487H384.006V148.631H373.291V128.68H384.006V130.824H375.891ZM403.597 148.631H400.997L390.54 132.767V148.631H387.94V128.68H390.54L400.997 144.515V128.68H403.597V148.631ZM407.058 138.655C407.058 136.712 407.496 134.968 408.372 133.425C409.249 131.862 410.439 130.642 411.943 129.766C413.467 128.89 415.153 128.451 417.001 128.451C419.172 128.451 421.067 128.976 422.686 130.023C424.306 131.071 425.486 132.558 426.229 134.482H423.115C422.563 133.282 421.763 132.357 420.715 131.71C419.686 131.062 418.449 130.738 417.001 130.738C415.61 130.738 414.363 131.062 413.258 131.71C412.153 132.357 411.286 133.282 410.658 134.482C410.029 135.664 409.715 137.055 409.715 138.655C409.715 140.237 410.029 141.628 410.658 142.828C411.286 144.01 412.153 144.925 413.258 145.572C414.363 146.22 415.61 146.544 417.001 146.544C418.449 146.544 419.686 146.23 420.715 145.601C421.763 144.953 422.563 144.029 423.115 142.828H426.229C425.486 144.734 424.306 146.211 422.686 147.259C421.067 148.288 419.172 148.802 417.001 148.802C415.153 148.802 413.467 148.374 411.943 147.516C410.439 146.64 409.249 145.43 408.372 143.886C407.496 142.343 407.058 140.599 407.058 138.655ZM432.699 130.824V137.483H439.957V139.627H432.699V146.487H440.814V148.631H430.099V128.68H440.814V130.824H432.699Z" fill="#121B24"/>
<path d="M429.357 8.86069V70.5996C429.357 77.364 431.119 82.557 434.643 86.1773C438.167 89.7027 443.119 91.4651 449.5 91.4651C455.976 91.4651 460.976 89.7027 464.5 86.1773C468.024 82.557 469.786 77.364 469.786 70.5996V8.86069H489.929V70.4567C489.929 78.9361 488.071 86.1298 484.357 92.0368C480.738 97.8488 475.833 102.231 469.643 105.185C463.547 108.139 456.738 109.615 449.214 109.615C441.786 109.615 435.024 108.139 428.929 105.185C422.929 102.231 418.167 97.8488 414.643 92.0368C411.119 86.1298 409.357 78.9361 409.357 70.4567V8.86069H429.357ZM529.252 40.8735C531.823 37.253 535.347 34.2518 539.823 31.8699C544.395 29.3927 549.586 28.1541 555.395 28.1541C562.157 28.1541 568.252 29.8215 573.68 33.1561C579.206 36.4907 583.537 41.2546 586.68 47.4475C589.92 53.5452 591.537 60.6431 591.537 68.7417C591.537 76.8404 589.92 84.0336 586.68 90.3218C583.537 96.5145 579.206 101.326 573.68 104.756C568.252 108.186 562.157 109.901 555.395 109.901C549.586 109.901 544.443 108.71 539.966 106.328C535.586 103.946 532.014 100.945 529.252 97.3246V146.344H509.252V29.4403H529.252V40.8735ZM571.109 68.7417C571.109 63.9781 570.109 59.8811 568.109 56.4511C566.205 52.9259 563.633 50.2582 560.395 48.4479C557.252 46.6377 553.823 45.7326 550.109 45.7326C546.49 45.7326 543.062 46.6853 539.823 48.5908C536.681 50.4011 534.109 53.0688 532.109 56.594C530.205 60.1194 529.252 64.264 529.252 69.0276C529.252 73.7912 530.205 77.9357 532.109 81.4611C534.109 84.9865 536.681 87.7019 539.823 89.6072C543.062 91.4177 546.49 92.3226 550.109 92.3226C553.823 92.3226 557.252 91.3696 560.395 89.4643C563.633 87.559 566.205 84.8436 568.109 81.3182C570.109 77.7928 571.109 73.6008 571.109 68.7417Z" fill="#008BF3"/>
<path d="M28.0106 25.01V50.02H61.5823V65.8835H28.0106V92.3226H65.868V108.615H8.01062V8.71777H65.868V25.01H28.0106ZM127.757 108.615L111.471 84.0336L97.0429 108.615H75.6143L101.471 68.8847L75.3286 29.4403H97.9L114.043 53.8787L128.614 29.4403H150.043L124.043 68.8847L150.329 108.615H127.757ZM156.049 68.7417C156.049 60.7385 157.62 53.6405 160.763 47.4475C164.001 41.2546 168.334 36.4907 173.763 33.1561C179.287 29.8215 185.43 28.1541 192.191 28.1541C198.096 28.1541 203.239 29.345 207.62 31.727C212.096 34.1089 215.667 37.1101 218.334 40.7306V29.4403H238.477V108.615H218.334V97.0387C215.763 100.755 212.191 103.851 207.62 106.328C203.144 108.71 197.953 109.901 192.049 109.901C185.382 109.901 179.287 108.186 173.763 104.756C168.334 101.326 164.001 96.5145 160.763 90.3218C157.62 84.0336 156.049 76.8404 156.049 68.7417ZM218.334 69.0276C218.334 64.1685 217.382 60.024 215.477 56.594C213.573 53.0688 211.001 50.4011 207.763 48.5908C204.525 46.6853 201.049 45.7326 197.334 45.7326C193.62 45.7326 190.191 46.6377 187.049 48.4479C183.906 50.2582 181.334 52.9259 179.334 56.4511C177.43 59.8811 176.477 63.9781 176.477 68.7417C176.477 73.5054 177.43 77.6979 179.334 81.3182C181.334 84.8436 183.906 87.559 187.049 89.4643C190.287 91.3696 193.715 92.3226 197.334 92.3226C201.049 92.3226 204.525 91.4176 207.763 89.6072C211.001 87.7019 213.573 85.034 215.477 81.604C217.382 78.0786 218.334 73.8867 218.334 69.0276ZM356.297 28.297C366.011 28.297 373.82 31.2982 379.725 37.3006C385.725 43.2077 388.725 51.4967 388.725 62.1677V108.615H368.725V64.8831C368.725 58.6903 367.154 53.974 364.011 50.7345C360.868 47.3999 356.582 45.7326 351.154 45.7326C345.725 45.7326 341.391 47.3999 338.154 50.7345C335.011 53.974 333.439 58.6903 333.439 64.8831V108.615H313.439V64.8831C313.439 58.6903 311.868 53.974 308.725 50.7345C305.582 47.3999 301.297 45.7326 295.868 45.7326C290.344 45.7326 285.963 47.3999 282.725 50.7345C279.582 53.974 278.011 58.6903 278.011 64.8831V108.615H258.011V29.4403H278.011V39.0156C280.582 35.6809 283.868 33.0608 287.868 31.1553C291.963 29.2498 296.439 28.297 301.297 28.297C307.487 28.297 313.011 29.6309 317.868 32.2986C322.725 34.8711 326.487 38.5868 329.154 43.4459C331.725 38.8727 335.439 35.2045 340.297 32.4415C345.249 29.6785 350.582 28.297 356.297 28.297Z" fill="#121B24"/>
</g>
</g>
</g>
<defs>
<clipPath id="clip0_1_2">
<rect width="700" height="155" fill="white"/>
</clipPath>
<clipPath id="clip1_1_2">
<rect width="600" height="160.064" fill="white" transform="translate(-2)"/>
</clipPath>
</defs>
</svg>
